# xmcd CD database file
#
# Track frame offsets:
#	150
#	9852
#	20576
#	32110
#	49453
#	63884
#	80422
#	100921
#	112854
#	126892
#	139857
#	147810
#	159099
#	172960
#
# Disc length: 2505 seconds
#
# Revision: 0
# Processed by: cddbd v1.5.1PL0 Copyright (c) Steve Scherf et al.
# Submitted via: Feurio! 1.67 - http://www.feurio.com
#
DISCID=ab09c70e
DTITLE=Johnny Cash - American III (Solitary Man)
DYEAR=1900
DGENRE=
TTITLE0=I won't back down
TTITLE1=Solitary Man
TTITLE2=That Lucky old Sun
TTITLE3=One
TTITLE4=Nobody
TTITLE5=I see a Darkness
TTITLE6=The Mercy Seat
TTITLE7=Would you lay with me
TTITLE8=American III
TTITLE9=Before my Time
TTITLE10=Country Trash
TTITLE11=Mary of the Wild Moor
TTITLE12=I'm leaving now
TTITLE13=Wayfaring Stranger
EXTD=
EXTT0=
EXTT1=
EXTT2=
EXTT3=
EXTT4=
EXTT5=
EXTT6=
EXTT7=
EXTT8=
EXTT9=
EXTT10=
EXTT11=
EXTT12=
EXTT13=
PLAYORDER=
